# xmcd CD database file
#
# Track frame offsets:
#	150
#	19785
#	38015
#	51502
#	69810
#	82710
#	99382
#	119432
#	137935
#	157907
#	178609
#	194820
#	212242
#
# Disc length: 3059 seconds
#
# Revision: 0
# Processed by: cddbd v1.4b42PL1 Copyright (c) Steve Scherf et al.
# Submitted via: CDex 1.40Beta6
#
DISCID=af0bf10d
DTITLE=Mafalda Minnozzi - Angelo Blu
DYEAR=1999
DGENRE=Italiana
TTITLE0=Ci Saró 
TTITLE1=Cinque Giorni
TTITLE2=Il Mondo
TTITLE3=Ti Lascio Una Canzone
TTITLE4=Sogno
TTITLE5=Un Giornio Ti Baccio
TTITLE6=Angelo Blu
TTITLE7=Dio Come Ti Amo
TTITLE8=Non Sonno Una Signora
TTITLE9=Hei Mae
TTITLE10=Una Casa In Cima Al Mondo
TTITLE11=Ancora, Ancora, Ancora
TTITLE12=Velocitá Massima
EXTD=
EXTT0=
EXTT1=
EXTT2=
EXTT3=
EXTT4=
EXTT5=
EXTT6=
EXTT7=
EXTT8=
EXTT9=
EXTT10=
EXTT11=
EXTT12=
PLAYORDER=
